<?xml version="1.0" encoding="utf-8"?>
<!-- Generator: Adobe Adobe Illustrator 24.2.0, SVG Export Plug-In . SVG Version: 6.00 Build 0)  -->
<svg version="1.1" id="Layer_1" xmlns="http://www.w3.org/2000/svg" xmlns:xlink="http://www.w3.org/1999/xlink" x="0px" y="0px"
	 width="1728px" height="1296px" viewBox="0 0 1728 1296" style="enable-background:new 0 0 1728 1296;" xml:space="preserve">
<style type="text/css">
	.st0{opacity:0.2902;fill:url(#SVGID_1_);}
</style>
<g>
	<path d="M559.31,674.46c-48.44,45.44-138.25,10.26-132.47-67.14c-4.21-73.73,85.49-114,132.47-66.83
		c11.57,10.64,5.86,33.04-9.85,32.96c-14.06,0-17.16-17.4-39.94-17.4c-24.47,0-41.07,19.84-41.07,51.27
		c0,31.74,16.6,51.27,41.07,51.27c22.78,0,25.88-17.4,39.94-17.4C565.27,641.16,570.86,663.59,559.31,674.46z"/>
	<path d="M710.92,670.18c1.49,29.4-42.21,29.75-40.78,0c0-11.14,0-33.42,0-44.56c0-3.97-2.25-6.41-6.19-6.41c-8.65,0-25.95,0-34.6,0
		c-3.66,0-5.91,2.44-5.91,6.41c0,11.14,0,33.42,0,44.56c1.53,29.55-42.59,29.61-41.06,0c0-51.65,0-154.96,0-206.61
		c0-13.43,7.59-22.28,20.53-22.28s20.53,8.85,20.53,22.28c0,29.6,0,88.81,0,118.41c0,3.97,2.25,6.41,5.91,6.41
		c8.65,0,25.95,0,34.6,0c3.94,0,6.19-2.44,6.19-6.41c1.77-20.11-8.46-59.38,20.25-59.51c12.94,0,20.53,9.16,20.53,22.58
		C710.92,576.34,710.92,638.9,710.92,670.18z"/>
	<path d="M856.89,691.24c-31.15,10.55-24.12-31.44-38.53-30.21c-12.45,0-37.34,0-49.78,0c-8.84-0.54-9.74,13.12-13.22,19.53
		c-2.82,7.32-8.44,12.21-15.19,12.21c-12.32,0.36-18.54-14.04-13.5-25.03c12.85-32.55,37.27-98.23,49.78-130.93
		c3.04-7.96,10.13-15.56,21.38-15.56s17.37,6.74,20.81,15.87c11.79,31.23,35.61,93.61,48.1,124.52
		C871.44,672.63,868.95,686.7,856.89,691.24z M809.92,624.1c-20.2-53.2-13.35-49.41-33.19,0c-1.75,3.05-0.78,6.23,3.37,6.1
		c6.54,0,19.62,0,26.16,0C810.45,630.33,811.18,627.23,809.92,624.1z"/>
	<path d="M868.97,485.21c-43.81,0.43,62.57-57.43,89.51-61.21C964.66,423.14,912.34,484.79,868.97,485.21z M931.96,661.72
		c1.9,40.8-61.49,40.78-59.32,0c0-43.16-15.99-130.31-15.99-173.48c0-18.53,26.96-30.34,45.65-30.34c18.28,0,51.23,7.91,51.23,26.44
		C953.53,527.51,931.96,618.56,931.96,661.72z"/>
	<path d="M1089.78,732.75c1.31,28.3-40.12,28.37-38.81,0c0-10.22,0-30.67,0-40.89c-0.07-3.56-2.7-3.89-5.34-2.75
		c-118.82,41.66-137.83-169.58-17.44-168.77c79.82,1.44,60.61,72.85,27.56,47.61c-7.61-7.61-15.75-11.29-27.28-11.29
		c-52.89-4.04-52.89,104.05-2.25,101.63c44.8-0.39,6.08-52.59,44.16-54.63c12.09,0,19.41,8.24,19.41,21.06
		C1089.78,651.72,1089.78,705.74,1089.78,732.75z"/>
	<path d="M1186.82,694.29c-121.67-1.99-92.13-200.53,21.95-171.07C1296.6,545.56,1280.42,698.18,1186.82,694.29z M1186.82,556.96
		c-50.87-1.48-50.82,102.4,0,100.71C1237.64,659.35,1237.68,555.47,1186.82,556.96z"/>
</g>
<radialGradient id="SVGID_1_" cx="846.5776" cy="604" r="336.6246" gradientUnits="userSpaceOnUse">
	<stop  offset="0" style="stop-color:#6DD428"/>
	<stop  offset="1" style="stop-color:#6E6E6E"/>
</radialGradient>
<path class="st0" d="M410.08,623.49v-38.98c0-94.17,76.34-170.51,170.51-170.51h531.98c94.17,0,170.51,76.34,170.51,170.51v38.98
	c0,94.17-76.34,170.51-170.51,170.51H580.59C486.42,794,410.08,717.66,410.08,623.49z"/>
</svg>
